<svg xmlns="http://www.w3.org/2000/svg" id="Livello_1" data-name="Livello 1" viewBox="0 0 420 60"><defs><style>      .cls-1, .cls-2 {        stroke-width: 0px;      }      .cls-2 {        fill: #cd0000;      }    </style></defs><g><path class="cls-1" d="m.8,48.1h4.9v.7H1.5v2.3h3.7v.7H1.5v2.4h4.1v.7H.8v-6.7Z"></path><path class="cls-1" d="m8.7,54.9c-.4,0-.7,0-1.1-.2-.4-.1-.7-.3-1-.5l.4-.5c.3.2.5.4.8.5.3.1.6.2.9.2s.5,0,.7-.2c.2-.1.3-.3.3-.6h0c0-.1,0-.2-.1-.3,0,0-.2-.2-.3-.2-.1,0-.2-.1-.4-.2-.2,0-.3,0-.5-.1-.2,0-.4-.1-.6-.2-.2,0-.4-.2-.5-.3-.2-.1-.3-.2-.4-.4s-.1-.3-.1-.6h0c0-.2,0-.4.1-.6,0-.2.2-.3.4-.5s.3-.2.5-.3c.2,0,.4-.1.7-.1s.6,0,.9.1c.3,0,.6.2.9.4l-.3.6c-.2-.1-.5-.3-.7-.4-.3,0-.5-.1-.7-.1s-.5,0-.7.2-.3.3-.3.5h0c0,.1,0,.2.1.3,0,0,.2.2.3.2.1,0,.3.1.4.2.2,0,.3.1.5.2.2,0,.4.1.6.2s.4.2.5.3c.2.1.3.2.4.4s.1.3.1.6h0c0,.3,0,.5-.1.6s-.2.3-.4.5c-.2.1-.3.2-.6.3s-.4.1-.7.1Z"></path><path class="cls-1" d="m13.3,55c-.2,0-.5,0-.7,0-.2,0-.4-.2-.6-.3-.2-.1-.3-.3-.4-.5-.1-.2-.2-.4-.2-.7h0c0-.3,0-.5.2-.7.1-.2.2-.4.4-.5.2-.1.4-.2.7-.3.3,0,.5-.1.9-.1s.6,0,.8,0c.2,0,.5,0,.7.2v-.2c0-.4-.1-.8-.4-1s-.6-.3-1.1-.3-.6,0-.8.1c-.2,0-.5.2-.7.3l-.2-.6c.3-.1.6-.2.8-.3.3,0,.6-.1,1-.1.7,0,1.2.2,1.6.5.3.3.5.8.5,1.4v3h-.7v-.7c-.2.2-.4.4-.7.6s-.7.3-1.1.3Zm.1-.6c.2,0,.4,0,.6-.1.2,0,.4-.2.5-.3s.3-.3.4-.4.1-.3.1-.5v-.5c-.2,0-.4,0-.6-.1-.2,0-.5,0-.8,0-.5,0-.8,0-1.1.3s-.4.4-.4.7h0c0,.2,0,.3.1.4,0,.1.2.2.3.3.1,0,.2.1.4.2.1,0,.3,0,.5,0Z"></path><path class="cls-1" d="m19.7,55c-.4,0-.7,0-1-.2-.3-.1-.6-.3-.8-.6-.2-.2-.4-.5-.5-.8-.1-.3-.2-.6-.2-1h0c0-.4,0-.7.2-1s.3-.6.5-.8c.2-.2.5-.4.8-.6.3-.1.7-.2,1-.2s.7,0,1,.2c.3.1.6.3.8.6.2.2.4.5.5.8.1.3.2.6.2,1h0c0,.4,0,.7-.2,1-.1.3-.3.6-.5.8-.2.2-.5.4-.8.6-.3.1-.7.2-1,.2Zm0-.7c.3,0,.5,0,.7-.2.2-.1.4-.2.6-.4.2-.2.3-.4.4-.6,0-.2.1-.5.1-.7h0c0-.3,0-.5-.1-.8,0-.2-.2-.4-.4-.6-.2-.2-.4-.3-.6-.4-.2-.1-.5-.2-.7-.2s-.5,0-.7.2c-.2.1-.4.2-.6.4-.2.2-.3.4-.4.6,0,.2-.1.5-.1.7h0c0,.3,0,.5.1.8,0,.2.2.4.4.6.2.2.4.3.6.4.2.1.5.2.7.2Z"></path><path class="cls-1" d="m25.3,54.9c-.2,0-.4,0-.6,0-.2,0-.3-.1-.4-.2s-.2-.3-.3-.4c0-.2-.1-.4-.1-.6v-3h-.7v-.7h.7v-1.5h.7v1.5h1.6v.7h-1.6v2.9c0,.3,0,.5.2.6.2.1.4.2.6.2s.2,0,.4,0,.2,0,.4-.1v.6c-.1,0-.3.1-.4.2s-.3,0-.5,0Z"></path><path class="cls-1" d="m29.7,55c-.3,0-.7,0-1-.2-.3-.1-.6-.3-.8-.5-.2-.2-.4-.5-.5-.8s-.2-.7-.2-1.1h0c0-.4,0-.7.2-1s.3-.6.5-.8c.2-.2.5-.4.8-.6.3-.1.6-.2,1-.2s.7,0,1,.2c.3.1.5.3.7.6.2.2.3.5.5.8s.2.7.2,1h0c0,.2,0,.2,0,.2h-3.9c0,.3,0,.5.2.7.1.2.2.4.4.5.2.1.3.3.5.3.2,0,.4.1.6.1.3,0,.6,0,.9-.2.2-.1.5-.3.7-.5l.5.4c-.2.3-.5.5-.9.7-.3.2-.7.3-1.2.3Zm1.5-2.9c0-.2,0-.4-.1-.6,0-.2-.2-.4-.3-.5-.1-.2-.3-.3-.5-.4-.2,0-.4-.1-.7-.1s-.4,0-.6.1c-.2,0-.3.2-.5.4-.1.2-.3.3-.3.5,0,.2-.1.4-.2.7h3.2Z"></path><path class="cls-1" d="m36.2,48.1h2.3c.5,0,1,0,1.4.3.4.2.8.4,1.1.7.3.3.6.7.7,1.1s.3.8.3,1.3h0c0,.5,0,.9-.3,1.3s-.4.8-.7,1.1c-.3.3-.7.5-1.1.7-.4.2-.9.3-1.4.3h-2.3v-6.7Zm.8.7v5.3h1.6c.4,0,.8,0,1.2-.2.3-.1.6-.3.9-.6.2-.2.4-.5.6-.8.1-.3.2-.7.2-1h0c0-.4,0-.7-.2-1.1-.1-.3-.3-.6-.6-.8-.2-.2-.5-.4-.9-.6-.3-.1-.7-.2-1.2-.2h-1.6Z"></path><path class="cls-1" d="m45.7,55c-.3,0-.7,0-1-.2-.3-.1-.6-.3-.8-.5-.2-.2-.4-.5-.5-.8s-.2-.7-.2-1.1h0c0-.4,0-.7.2-1s.3-.6.5-.8c.2-.2.5-.4.8-.6.3-.1.6-.2,1-.2s.7,0,1,.2c.3.1.5.3.7.6.2.2.3.5.5.8s.2.7.2,1h0c0,.2,0,.2,0,.2h-3.9c0,.3,0,.5.2.7.1.2.2.4.4.5.2.1.3.3.5.3.2,0,.4.1.6.1.3,0,.6,0,.9-.2.2-.1.5-.3.7-.5l.5.4c-.2.3-.5.5-.9.7-.3.2-.7.3-1.2.3Zm1.5-2.9c0-.2,0-.4-.1-.6,0-.2-.2-.4-.3-.5-.1-.2-.3-.3-.5-.4-.2,0-.4-.1-.7-.1s-.4,0-.6.1c-.2,0-.3.2-.5.4-.1.2-.3.3-.3.5,0,.2-.1.4-.2.7h3.2Z"></path><path class="cls-1" d="m51.3,55c-.3,0-.6,0-.9-.2-.3-.1-.5-.3-.8-.5-.2-.2-.4-.5-.5-.8s-.2-.7-.2-1.1h0c0-.4,0-.8.2-1.1.1-.3.3-.6.5-.8.2-.2.5-.4.8-.5.3-.1.6-.2.9-.2s.4,0,.6,0,.4.1.5.2c.2,0,.3.2.4.3s.2.3.3.4v-3h.7v7h-.7v-1c-.1.1-.2.3-.3.4-.1.1-.3.3-.4.4-.2.1-.3.2-.5.2-.2,0-.4,0-.6,0Zm.1-.7c.2,0,.5,0,.7-.1s.4-.2.6-.4c.2-.2.3-.4.4-.6s.1-.5.1-.8h0c0-.3,0-.6-.1-.8s-.2-.4-.4-.6c-.2-.2-.4-.3-.6-.4s-.4-.1-.7-.1-.5,0-.7.1c-.2,0-.4.2-.6.4s-.3.4-.4.6c0,.2-.1.5-.1.8h0c0,.3,0,.6.1.8,0,.2.2.4.4.6.2.2.3.3.6.4.2,0,.4.1.7.1Z"></path><path class="cls-1" d="m55.6,48h.8v.8h-.8v-.8Zm0,1.9h.7v5h-.7v-5Z"></path><path class="cls-1" d="m60.4,55c-.4,0-.7,0-1-.2-.3-.1-.6-.3-.8-.6s-.4-.5-.5-.8-.2-.6-.2-1h0c0-.4,0-.7.2-1s.3-.6.5-.8c.2-.2.5-.4.8-.6.3-.1.6-.2,1-.2s.5,0,.6,0c.2,0,.4.1.5.2.2,0,.3.2.4.3.1.1.3.2.4.3l-.5.5c-.2-.2-.4-.4-.6-.5-.2-.1-.5-.2-.9-.2s-.5,0-.7.1c-.2,0-.4.2-.6.4-.2.2-.3.4-.4.6,0,.2-.1.5-.1.8h0c0,.3,0,.5.1.8,0,.2.2.4.4.6.2.2.4.3.6.4.2,0,.5.1.7.1s.6,0,.8-.2.5-.3.7-.5l.5.4c-.2.3-.5.5-.8.7-.3.2-.7.3-1.2.3Z"></path><path class="cls-1" d="m65.1,55c-.2,0-.5,0-.7,0-.2,0-.4-.2-.6-.3-.2-.1-.3-.3-.4-.5-.1-.2-.2-.4-.2-.7h0c0-.3,0-.5.2-.7.1-.2.2-.4.4-.5.2-.1.4-.2.7-.3.3,0,.5-.1.9-.1s.6,0,.8,0c.2,0,.5,0,.7.2v-.2c0-.4-.1-.8-.4-1s-.6-.3-1.1-.3-.6,0-.8.1c-.2,0-.5.2-.7.3l-.2-.6c.3-.1.6-.2.8-.3.3,0,.6-.1,1-.1.7,0,1.2.2,1.6.5.3.3.5.8.5,1.4v3h-.7v-.7c-.2.2-.4.4-.7.6s-.7.3-1.1.3Zm.1-.6c.2,0,.4,0,.6-.1.2,0,.4-.2.5-.3s.3-.3.4-.4.1-.3.1-.5v-.5c-.2,0-.4,0-.6-.1-.2,0-.5,0-.8,0-.5,0-.8,0-1.1.3s-.4.4-.4.7h0c0,.2,0,.3.1.4,0,.1.2.2.3.3.1,0,.2.1.4.2.1,0,.3,0,.5,0Z"></path><path class="cls-1" d="m70.8,54.9c-.2,0-.4,0-.6,0-.2,0-.3-.1-.4-.2s-.2-.3-.3-.4c0-.2-.1-.4-.1-.6v-3h-.7v-.7h.7v-1.5h.7v1.5h1.6v.7h-1.6v2.9c0,.3,0,.5.2.6.2.1.4.2.6.2s.2,0,.4,0,.2,0,.4-.1v.6c-.1,0-.3.1-.4.2s-.3,0-.5,0Z"></path><path class="cls-1" d="m75.2,55c-.3,0-.7,0-1-.2-.3-.1-.6-.3-.8-.5-.2-.2-.4-.5-.5-.8s-.2-.7-.2-1.1h0c0-.4,0-.7.2-1s.3-.6.5-.8c.2-.2.5-.4.8-.6.3-.1.6-.2,1-.2s.7,0,1,.2c.3.1.5.3.7.6.2.2.3.5.5.8s.2.7.2,1h0c0,.2,0,.2,0,.2h-3.9c0,.3,0,.5.2.7.1.2.2.4.4.5.2.1.3.3.5.3.2,0,.4.1.6.1.3,0,.6,0,.9-.2.2-.1.5-.3.7-.5l.5.4c-.2.3-.5.5-.9.7-.3.2-.7.3-1.2.3Zm1.5-2.9c0-.2,0-.4-.1-.6,0-.2-.2-.4-.3-.5-.1-.2-.3-.3-.5-.4-.2,0-.4-.1-.7-.1s-.4,0-.6.1c-.2,0-.3.2-.5.4-.1.2-.3.3-.3.5,0,.2-.1.4-.2.7h3.2Z"></path><path class="cls-1" d="m80.8,55c-.3,0-.6,0-.9-.2-.3-.1-.5-.3-.8-.5-.2-.2-.4-.5-.5-.8s-.2-.7-.2-1.1h0c0-.4,0-.8.2-1.1.1-.3.3-.6.5-.8.2-.2.5-.4.8-.5.3-.1.6-.2.9-.2s.4,0,.6,0,.4.1.5.2c.2,0,.3.2.4.3s.2.3.3.4v-3h.7v7h-.7v-1c-.1.1-.2.3-.3.4-.1.1-.3.3-.4.4-.2.1-.3.2-.5.2-.2,0-.4,0-.6,0Zm.1-.7c.2,0,.5,0,.7-.1s.4-.2.6-.4c.2-.2.3-.4.4-.6s.1-.5.1-.8h0c0-.3,0-.6-.1-.8s-.2-.4-.4-.6c-.2-.2-.4-.3-.6-.4s-.4-.1-.7-.1-.5,0-.7.1c-.2,0-.4.2-.6.4s-.3.4-.4.6c0,.2-.1.5-.1.8h0c0,.3,0,.6.1.8,0,.2.2.4.4.6.2.2.3.3.6.4.2,0,.4.1.7.1Z"></path><path class="cls-1" d="m88.1,48.1h.8l2.4,3.7,2.4-3.7h.8v6.7h-.8v-5.4l-2.4,3.6h0l-2.4-3.6v5.4h-.7v-6.7Z"></path><path class="cls-1" d="m96.4,48.1h2.9c.4,0,.8,0,1.1.2s.6.3.8.5.3.4.4.6c0,.2.1.5.1.7h0c0,.3,0,.6-.1.8s-.2.4-.4.6c-.2.2-.4.3-.6.4s-.5.2-.7.2l2.1,2.7h-.9l-1.9-2.6h-1.9v2.6h-.8v-6.7Zm2.8,3.4c.2,0,.5,0,.7,0,.2,0,.4-.2.5-.3.2-.1.3-.3.4-.4,0-.2.1-.4.1-.6h0c0-.4-.2-.8-.5-1s-.7-.3-1.3-.3h-2.1v2.7h2.1Z"></path><path class="cls-1" d="m103.4,48.1h.8v6.7h-.8v-6.7Z"></path></g><g><path class="cls-2" d="m119,27.9c0,.7-.2,1.3-.5,1.8s-.8.9-1.4,1.2c-.6.3-1.2.5-1.9.5h-6.4v-13.6h6.6c.6,0,1.2.2,1.7.5.5.3.8.8,1.1,1.3.2.5.4,1.1.4,1.7s-.2,1.3-.5,1.9c-.3.6-.8,1-1.4,1.3.8.2,1.4.7,1.9,1.3.5.6.7,1.4.7,2.2Zm-8.9-8.9v5h4.7c.4,0,.8-.1,1.2-.4.3-.2.6-.5.8-.9s.3-.8.3-1.2,0-.9-.3-1.3c-.2-.4-.5-.7-.8-.9-.3-.2-.7-.3-1.1-.3h-4.8Zm7.6,8.7c0-.5-.1-.9-.3-1.3-.2-.4-.5-.7-.8-.9-.4-.2-.8-.4-1.2-.4h-5.2v5.2h5.1c.5,0,.9-.1,1.2-.4.4-.2.7-.6.9-.9.2-.4.3-.8.3-1.3Z"></path><path class="cls-2" d="m121.5,31.4v-13.6h5.8c.6,0,1.1.1,1.6.4.5.2.9.6,1.3,1,.4.4.6.9.8,1.4s.3,1,.3,1.5-.1,1.3-.4,1.8c-.2.6-.6,1.1-1.1,1.5-.5.4-1,.7-1.6.8l3.3,5.3h-1.5l-3.2-5h-4v5h-1.3Zm1.3-6.2h4.4c.5,0,1-.1,1.4-.4.4-.3.7-.7.9-1.2.2-.5.3-1,.3-1.5s-.1-1.1-.4-1.5c-.2-.5-.6-.8-1-1.1-.4-.3-.9-.4-1.4-.4h-4.3v6.2Z"></path><path class="cls-2" d="m134.1,31.4v-13.6h1.3v13.6h-1.3Z"></path><path class="cls-2" d="m144.3,31.5c-1,0-1.8-.2-2.6-.6-.8-.4-1.5-.9-2-1.6-.6-.7-1-1.4-1.3-2.2-.3-.8-.5-1.7-.5-2.5s.2-1.8.5-2.6c.3-.8.8-1.6,1.4-2.2.6-.6,1.3-1.2,2-1.5.8-.4,1.6-.6,2.5-.6s1.8.2,2.6.6c.8.4,1.4.9,2,1.6s1,1.4,1.3,2.2c.3.8.5,1.7.5,2.5s-.2,1.8-.5,2.6c-.3.8-.8,1.6-1.3,2.2-.6.6-1.3,1.2-2,1.5s-1.6.6-2.5.6Zm-5-6.9c0,.7.1,1.5.4,2.1.2.7.6,1.3,1,1.8.4.5,1,1,1.6,1.3s1.3.5,2,.5,1.5-.2,2.1-.5,1.2-.8,1.6-1.3c.4-.5.8-1.2,1-1.8.2-.7.3-1.4.3-2.1s-.1-1.5-.4-2.1-.6-1.3-1-1.8c-.5-.5-1-1-1.6-1.3s-1.3-.5-2-.5-1.5.2-2.1.5c-.6.3-1.2.8-1.6,1.3-.4.5-.8,1.2-1,1.8-.2.7-.4,1.4-.4,2.1Z"></path></g><g><path class="cls-2" d="m11.1,42.3c-1.5,0-3-.3-4.3-.9s-2.5-1.5-3.6-2.6-1.8-2.4-2.4-3.8c-.6-1.5-.9-3-.9-4.7s.3-3.1.9-4.5c.6-1.4,1.4-2.7,2.4-3.7,1-1.1,2.2-1.9,3.6-2.5,1.4-.6,2.9-.9,4.5-.9s4.1.5,5.7,1.4c1.6.9,2.8,2.2,3.5,3.7l-3.4,2.5c-.6-1.2-1.4-2.1-2.5-2.7-1.1-.6-2.2-.9-3.5-.9s-1.9.2-2.7.6c-.8.4-1.5,1-2.1,1.7-.6.7-1.1,1.6-1.4,2.5-.3.9-.5,1.9-.5,3s.2,2.2.5,3.1c.3.9.8,1.8,1.5,2.5s1.4,1.3,2.2,1.7c.8.4,1.8.6,2.8.6s2.3-.3,3.4-.9c1.1-.6,2.1-1.5,3.1-2.7v4.5c-2,2.1-4.2,3.2-6.9,3.2Zm6.5-8.9h-4.7v-3.3h8.5v12h-3.8v-8.7Z"></path><path class="cls-1" d="m32.3,30.5c0,.6-.2,1.2-.5,1.7-.3.5-.7.9-1.3,1.3-.5.3-1.1.5-1.7.5s-1.2-.2-1.7-.5c-.5-.3-.9-.7-1.3-1.3-.3-.5-.5-1.1-.5-1.7s.2-1.2.5-1.7c.3-.5.7-.9,1.3-1.3.5-.3,1.1-.5,1.7-.5s1.2.2,1.7.5c.5.3.9.7,1.3,1.3.3.5.5,1.1.5,1.7Z"></path><path class="cls-1" d="m43,42.4c-1.4,0-2.7-.2-3.9-.7s-2.3-1.2-3.1-2.1l.9-1.6c1,.9,1.9,1.6,2.9,2,1,.4,2,.6,3.1.6s2.4-.3,3.3-.8c.8-.5,1.3-1.3,1.3-2.3s-.2-1.2-.6-1.6c-.4-.4-1-.7-1.7-.9-.8-.2-1.7-.5-2.7-.7-1.2-.3-2.2-.7-3-1-.8-.4-1.4-.8-1.8-1.4-.4-.6-.6-1.3-.6-2.2s.3-2,.8-2.8,1.3-1.3,2.3-1.7,2.1-.6,3.3-.6,2.5.2,3.5.6c1,.4,1.8,1,2.5,1.7l-1.1,1.5c-.6-.7-1.3-1.2-2.2-1.6-.8-.3-1.8-.5-2.8-.5s-1.4,0-2,.3c-.6.2-1.2.5-1.6.9-.4.4-.6,1-.6,1.8s.2,1.1.5,1.4c.3.3.8.6,1.4.9.6.2,1.4.5,2.3.7,1.3.4,2.4.7,3.4,1.1,1,.4,1.7.8,2.2,1.4.5.6.8,1.4.8,2.4,0,1.6-.6,2.8-1.8,3.7s-2.8,1.3-4.8,1.3Z"></path><path class="cls-1" d="m60.7,42.4c-1.3,0-2.4-.2-3.4-.7-1-.5-2-1.1-2.7-2-.8-.8-1.4-1.8-1.8-2.9-.4-1.1-.6-2.2-.6-3.4s.4-3.1,1.1-4.4c.7-1.3,1.7-2.4,3-3.2,1.3-.8,2.8-1.2,4.5-1.2s3,.4,4.3,1.1c1.2.7,2.1,1.7,2.7,3l-2.2.7c-.5-.9-1.2-1.6-2-2.1-.9-.5-1.8-.7-2.9-.7s-2.2.3-3.1.9c-.9.6-1.7,1.4-2.3,2.4-.6,1-.8,2.2-.8,3.5s.3,2.5.9,3.5c.6,1,1.3,1.9,2.3,2.5.9.6,2,.9,3.1.9s1.5-.1,2.2-.4,1.3-.6,1.8-1.1c.5-.5.9-.9,1-1.5l2.2.7c-.3.8-.8,1.5-1.5,2.2-.7.6-1.6,1.2-2.5,1.5-1,.4-2,.5-3.1.5Z"></path><path class="cls-1" d="m70,37.2c0-1.1.3-2,.9-2.8.6-.8,1.5-1.4,2.6-1.8,1.1-.4,2.3-.6,3.8-.6s1.7,0,2.6.2c.9.1,1.7.3,2.4.6v-1.4c0-1.4-.4-2.6-1.3-3.4-.9-.9-2-1.3-3.6-1.3s-1.8.2-2.7.5-1.8.8-2.8,1.5l-.9-1.6c1.1-.8,2.2-1.3,3.3-1.7,1.1-.4,2.2-.6,3.3-.6,2.1,0,3.8.6,5,1.8,1.2,1.2,1.8,2.9,1.8,5v7.9c0,.3,0,.5.2.7.1.1.3.2.6.2v1.8c-.2,0-.5,0-.6,0-.2,0-.3,0-.4,0-.6,0-1-.2-1.3-.5-.3-.3-.4-.7-.5-1.1v-1.3c-.8,1-1.8,1.8-3,2.3-1.2.5-2.5.8-3.8.8s-2.1-.2-3-.7c-.9-.5-1.6-1.1-2.1-1.9-.5-.8-.7-1.7-.7-2.6Zm11.5,1.3c.2-.3.4-.6.6-.9s.2-.5.2-.8v-2.5c-.7-.3-1.5-.5-2.3-.7-.8-.2-1.6-.2-2.4-.2-1.6,0-2.9.3-3.9.9-1,.6-1.5,1.5-1.5,2.6s.2,1.2.5,1.8.8,1,1.5,1.4c.6.4,1.4.5,2.2.5s2.1-.2,3-.6c.9-.4,1.7-.9,2.2-1.6Z"></path><path class="cls-1" d="m103.8,42.1h-2.2v-9.5c0-2-.3-3.5-.9-4.4-.6-.9-1.5-1.4-2.8-1.4s-1.7.2-2.6.6c-.9.4-1.6,1-2.3,1.7-.6.7-1.1,1.6-1.4,2.5v10.5h-2.2v-17.1h2v3.9c.5-.8,1.1-1.6,1.8-2.2.7-.6,1.6-1.1,2.5-1.5.9-.3,1.9-.5,2.9-.5s1.7.2,2.4.5c.7.4,1.2.8,1.6,1.5s.7,1.4.9,2.3c.2.9.3,1.9.3,3v10Z"></path></g></svg>